<?xml version="1.0" standalone="no"?><!DOCTYPE svg PUBLIC "-//W3C//DTD SVG 1.1//EN" "http://www.w3.org/Graphics/SVG/1.1/DTD/svg11.dtd"><svg t="1652084948115" class="icon" viewBox="0 0 1024 1024" version="1.1" xmlns="http://www.w3.org/2000/svg" p-id="622" width="180" height="180" xmlns:xlink="http://www.w3.org/1999/xlink"><defs><style type="text/css">@font-face { font-family: feedback-iconfont; src: url("//at.alicdn.com/t/font_1031158_u69w8yhxdu.woff2?t=1630033759944") format("woff2"), url("//at.alicdn.com/t/font_1031158_u69w8yhxdu.woff?t=1630033759944") format("woff"), url("//at.alicdn.com/t/font_1031158_u69w8yhxdu.ttf?t=1630033759944") format("truetype"); }
</style></defs><path d="M535.028486 623.816092l-40.427786-49.127436c4.093953-2.558721 7.676162-5.117441 11.25837-8.187906 33.263368-32.23988 67.038481-64.991504 100.30185-97.743129 3.582209-4.093953 5.117441-9.723138 4.093953-14.84058-19.958021-53.221389-56.803598-93.649175-99.790105-129.471264-3.582209-2.046977-7.676162-2.046977-11.258371 0-16.375812 9.211394-32.751624 18.934533-48.103948 29.68116-68.061969 49.63918-131.006497 105.931034-187.810095 167.852073-1.023488 1.023488-2.558721 2.046977-5.117441 4.605698-10.746627-21.493253-22.004998-41.451274-31.728136-61.92104-20.981509-42.474763-35.822089-88.01999-44.52174-134.588705-1.023488-6.652674 0.511744-13.817091 4.093954-19.446277C221.329335 260.989505 261.757121 214.932534 306.790605 173.993003 370.246877 117.189405 436.261869 62.432784 500.741629 7.164418c2.558721-2.046977 5.629185-4.093953 9.723139-7.164418 36.333833 29.681159 73.691154 58.338831 109.001499 89.043478 111.56022 96.207896 216.467766 199.58021 302.952524 319.84008 22.004998 30.192904 40.427786 62.944528 60.385807 94.672664 2.558721 3.582209 3.070465 8.187906 1.535232 12.281859-27.122439 48.615692-61.409295 91.602199-100.813593 133.565217-78.296852-230.284858-218.514743-419.630185-375.62019-601.29935C419.374313 150.964518 327.772114 250.754623 290.414793 384.831584l2.55872 2.046977 214.42079-179.622189c3.582209 3.070465 6.652674 5.629185 9.723138 8.69965 74.714643 71.644178 137.65917 155.058471 186.274863 246.66067 5.117441 7.164418 3.582209 16.375812-3.070465 22.004997-43.498251 46.568716-94.16092 84.949525-144.311844 123.842079-6.14093 4.605697-12.281859 9.211394-20.981509 15.352324z" fill="#0FB2E7" p-id="623"></path><path d="M134.844578 374.084958c79.32034 230.284858 219.538231 419.630185 376.131934 600.787606 88.531734-102.86057 179.622189-202.138931 217.491254-336.727636l-2.558721-2.046977-214.420789 179.622189c-3.582209-3.070465-6.652674-5.629185-10.234883-8.69965-74.202899-71.644178-137.147426-154.034983-185.763118-245.125438-5.629185-10.234883-4.605697-16.887556 3.582209-24.051974 40.427786-35.310345 80.855572-71.132434 121.283358-105.931034 12.793603-11.258371 27.122439-20.981509 42.986507-32.751624l35.822089 43.498251c-14.328836 16.375812-27.122439 32.23988-40.93953 46.056971-21.493253 22.516742-44.521739 43.498251-66.014993 66.014993-3.582209 4.093953-5.117441 9.723138-4.093953 14.840579 19.958021 53.221389 56.803598 93.649175 99.790105 129.471265 4.093953 1.535232 8.69965 1.535232 12.281859-1.023488 23.54023-15.352324 48.103948-29.681159 70.108946-46.568716 59.874063-45.033483 115.142429-95.696152 165.293353-151.476262l4.605697-3.070465c10.746627 20.981509 21.493253 40.93953 31.216392 61.92104 20.981509 42.474763 36.333833 88.01999 45.033483 134.588705 1.023488 6.652674-0.511744 13.817091-4.605697 19.446277-34.286857 49.63918-74.202899 95.184408-118.724638 135.612194-63.456272 57.315342-129.471264 112.071964-194.462768 167.852074-3.070465 2.558721-6.14093 4.605697-10.746627 7.676162-35.822089-29.169415-72.667666-57.827086-107.978011-88.531734-106.442779-91.602199-205.721139-188.833583-289.647176-301.417291-26.610695-35.822089-49.63918-74.714643-74.202899-112.583709-2.558721-4.093953-3.582209-8.69965-2.046976-13.305347 28.145927-49.127436 61.921039-94.16092 100.813593-134.076961z" fill="#0FB2E7" p-id="624"></path></svg>