<?xml version="1.0" standalone="no"?>
<!DOCTYPE svg PUBLIC "-//W3C//DTD SVG 20010904//EN"
 "http://www.w3.org/TR/2001/REC-SVG-20010904/DTD/svg10.dtd">
<svg version="1.0" xmlns="http://www.w3.org/2000/svg"
 width="512.000000pt" height="512.000000pt" viewBox="0 0 512.000000 512.000000"
 preserveAspectRatio="xMidYMid meet">
<metadata>
Created by potrace 1.14, written by Peter Selinger 2001-2017
</metadata>
<g transform="translate(0.000000,512.000000) scale(0.100000,-0.100000)"
fill="#000000" stroke="none">
<path d="M2465 5053 c-44 -37 -85 -72 -91 -77 -6 -6 -35 -31 -64 -56 -30 -25
-61 -52 -70 -60 -9 -8 -37 -32 -63 -53 -25 -21 -52 -43 -59 -50 -7 -7 -60 -52
-118 -101 -58 -49 -109 -94 -115 -100 -5 -6 -30 -27 -53 -45 -24 -19 -63 -53
-87 -75 -24 -23 -70 -63 -102 -91 -169 -145 -353 -330 -492 -495 -82 -97 -89
-106 -131 -163 -19 -26 -47 -62 -63 -80 -36 -42 -50 -97 -42 -161 12 -86 82
-327 130 -447 45 -111 211 -456 237 -492 12 -17 26 -5 164 135 174 177 247
247 399 378 61 52 112 98 115 101 3 3 73 57 155 121 154 118 256 187 352 238
50 27 57 28 82 16 84 -44 401 -394 401 -444 0 -6 4 -12 8 -14 16 -7 92 -179
92 -210 0 -28 -19 -50 -159 -187 -295 -290 -391 -381 -401 -381 -17 0 -11 -24
13 -50 12 -14 30 -35 38 -47 8 -12 37 -48 65 -79 27 -31 54 -64 59 -71 12 -16
97 46 360 256 194 156 252 207 388 341 94 93 117 121 117 144 0 43 -116 251
-271 483 -64 96 -258 355 -306 408 -10 11 -45 52 -78 90 -76 88 -326 345 -336
345 -4 0 -14 -6 -21 -13 -7 -7 -80 -68 -163 -137 -82 -68 -152 -127 -155 -130
-8 -8 -72 -61 -118 -98 -22 -19 -50 -41 -60 -50 -11 -10 -41 -35 -68 -57 -26
-22 -67 -56 -89 -75 -45 -38 -120 -101 -168 -140 -17 -14 -38 -32 -47 -40 -9
-8 -52 -44 -95 -80 -44 -36 -82 -68 -83 -72 -2 -5 -7 -6 -12 -3 -22 14 143
444 201 527 11 14 19 29 19 34 0 4 14 30 32 58 51 83 172 270 181 281 4 6 37
51 74 100 78 106 209 272 238 300 11 11 46 52 77 90 31 39 65 79 75 90 10 11
31 36 47 55 16 19 53 63 83 97 l55 62 76 -92 c42 -51 81 -97 87 -103 5 -6 29
-33 52 -60 23 -27 50 -59 60 -70 10 -12 32 -39 48 -60 17 -21 52 -65 78 -98
26 -34 53 -68 60 -76 7 -8 39 -49 72 -90 33 -41 65 -80 70 -87 6 -7 15 -18 21
-26 28 -34 267 -364 341 -472 85 -123 270 -415 315 -495 14 -25 57 -99 95
-165 65 -111 236 -448 275 -540 9 -22 33 -78 53 -125 44 -102 96 -235 137
-350 17 -47 32 -87 34 -89 8 -8 233 252 302 349 55 77 152 221 152 226 0 3 13
24 29 47 15 23 27 51 25 62 -4 27 -37 95 -46 95 -5 0 -8 4 -8 10 0 10 -171
283 -228 363 -132 185 -293 389 -487 613 -131 151 -515 541 -690 699 -60 55
-118 109 -130 120 -27 27 -248 220 -310 270 -65 54 -119 99 -125 106 -9 10
-347 279 -351 279 -2 0 -40 -30 -84 -67z"/>
<path d="M599 3168 c-150 -167 -237 -282 -359 -474 -43 -68 -70 -123 -70 -139
0 -24 25 -77 53 -110 4 -5 55 -84 113 -175 149 -232 299 -438 449 -615 28 -33
57 -68 65 -78 19 -25 21 -27 110 -127 188 -213 478 -504 749 -750 115 -104
102 -93 186 -165 39 -33 75 -65 80 -71 6 -6 66 -58 135 -115 69 -57 130 -108
136 -114 6 -5 28 -23 50 -40 21 -16 56 -45 78 -63 62 -51 68 -55 111 -87 22
-17 42 -33 43 -37 6 -13 21 -9 40 9 9 10 38 34 62 53 25 19 54 44 66 55 11 11
43 38 69 60 27 22 67 56 90 75 50 44 78 68 136 116 25 22 71 62 103 89 32 28
68 58 80 68 11 10 48 42 81 71 33 30 119 105 190 167 253 221 495 484 694 754
48 65 50 111 12 265 -34 135 -88 300 -127 389 -58 131 -220 451 -228 451 -5 0
-31 -24 -58 -52 -160 -170 -316 -323 -438 -428 -35 -30 -68 -60 -74 -66 -6 -5
-38 -32 -71 -58 -32 -27 -65 -55 -73 -62 -7 -8 -16 -14 -20 -14 -4 0 -21 -13
-38 -28 -63 -55 -82 -68 -186 -140 -58 -39 -111 -72 -116 -72 -6 0 -12 -4 -14
-8 -6 -14 -125 -82 -145 -82 -29 0 -201 158 -298 275 -91 108 -188 272 -216
363 -10 35 -10 47 1 67 7 14 100 112 205 218 180 180 309 320 328 353 8 13
-27 67 -78 120 -5 6 -26 31 -45 57 -19 25 -39 46 -45 47 -5 0 -21 -9 -35 -20
-81 -63 -197 -155 -206 -164 -6 -6 -37 -33 -69 -61 -32 -27 -68 -59 -79 -70
-12 -11 -48 -42 -81 -70 -33 -27 -66 -57 -75 -65 -8 -8 -79 -70 -157 -138
-134 -116 -153 -137 -153 -167 0 -17 25 -72 55 -120 14 -22 29 -50 34 -61 5
-12 30 -54 55 -93 25 -39 46 -74 46 -77 0 -20 271 -393 383 -527 112 -133 297
-330 390 -414 l35 -31 83 70 c46 39 95 80 109 92 14 11 52 43 85 71 33 27 62
52 65 55 3 3 28 23 55 45 28 21 52 42 55 45 3 3 74 63 158 133 84 70 165 138
180 151 148 128 282 234 286 227 8 -12 -27 -123 -81 -258 -64 -161 -151 -327
-260 -497 -72 -111 -172 -249 -185 -254 -4 -2 -8 -8 -8 -13 0 -5 -6 -17 -14
-26 -8 -10 -54 -67 -102 -128 -76 -96 -220 -270 -249 -301 -5 -6 -35 -39 -65
-75 -30 -35 -69 -79 -87 -99 l-31 -35 -24 30 c-12 16 -48 59 -79 95 -30 36
-64 76 -75 89 -10 13 -37 44 -59 68 -22 25 -47 55 -55 67 -8 12 -53 68 -100
126 -48 58 -111 137 -140 175 -29 39 -56 72 -60 75 -3 3 -69 91 -147 195 -178
240 -436 622 -515 765 -14 25 -56 97 -93 160 -82 139 -231 432 -304 596 -79
177 -78 175 -101 233 -11 30 -30 74 -41 97 -10 24 -19 47 -19 51 0 4 -15 47
-33 96 l-33 87 -75 -82z"/>
</g>
</svg>
